PathFileType	4	(X/Y/Z)	/Users/mathieubourgeois/Desktop/Analyse/Traitement/Sujet_02/Data/Transformed_Sujet_02_velo_80.trc
DataRate	CameraRate	NumFrames	NumMarkers	Units	OrigDataRate	OrigDataStartFrame	OrigNumFrames
120.000000	120.000000	4	36	mm	120.000000	707	1886
Frame#	Time	RFHD			RANE			STRN			LANI			LKNE			T10			RHUM			RWRB			C7			LFWT			LTOE			RTOE			LWRA			LBWT			RBWT			RFWT			LKNI			RKNI			RKNE			LANE			RANI			LHEE			RHEE			LHUM			LRAD			RRAD			RWRA			LWRB			LFHD			LBHD			RBHD			RSHO			LSHO			CLAV			LCAR			RCAR			
		X1	Y1	Z1	X2	Y2	Z2	X3	Y3	Z3	X4	Y4	Z4	X5	Y5	Z5	X6	Y6	Z6	X7	Y7	Z7	X8	Y8	Z8	X9	Y9	Z9	X10	Y10	Z10	X11	Y11	Z11	X12	Y12	Z12	X13	Y13	Z13	X14	Y14	Z14	X15	Y15	Z15	X16	Y16	Z16	X17	Y17	Z17	X18	Y18	Z18	X19	Y19	Z19	X20	Y20	Z20	X21	Y21	Z21	X22	Y22	Z22	X23	Y23	Z23	X24	Y24	Z24	X25	Y25	Z25	X26	Y26	Z26	X27	Y27	Z27	X28	Y28	Z28	X29	Y29	Z29	X30	Y30	Z30	X31	Y31	Z31	X32	Y32	Z32	X33	Y33	Z33	X34	Y34	Z34	X35	Y35	Z35	X36	Y36	Z36	

708	5.891666666666667	40.65951919555663	1477.462036132812	130.8760528564452	-381.1636657714844	401.6024169921875	174.7338104248046	-225.3194122314453	1277.6923828125	24.92880249023427	-111.4803161621094	480.6949157714844	-70.0741348266602	-67.4822540283203	903.2678833007812	-136.9831542968751	-377.4560852050781	1518.881591796875	24.17542266845689	-48.63092041015628	1195.032836914062	218.0369567871093	178.4714660644531	1024.64990234375	168.4748229980468	-135.1528778076172	1579.820556640625	12.32076454162586	-403.3896789550781	1220.454467773438	-92.22945404052746	88.7623977661133	438.747314453125	-136.2751617431641	-218.373764038086	246.3280334472656	153.0222625732421	216.7855072021485	1048.6552734375	-158.7198638916016	-594.4052734375	1199.67919921875	-44.98411560058608	-595.7650756835938	1205.441040039062	76.89673614501939	-422.9752502441406	1229.296508789062	174.9491271972655	-19.60676574707031	880.484619140625	-35.84817504882818	-114.763656616211	752.0162353515625	116.7261352539062	-165.0464935302735	794.2487182617188	218.4940032958984	-137.5077819824218	467.3638916015625	-159.0342712402344	-347.2406005859375	407.1233215332031	88.89990997314446	-199.5738220214844	424.1023864746094	-115.4111938476563	-456.340576171875	407.1167907714844	119.6654357910155	-29.66696739196775	1206.368286132812	-171.7123260498048	26.86041259765627	1246.403686523438	-195.9299468994141	6.200175285339324	1243.598266601562	255.2690277099609	208.8679046630859	1057.51513671875	222.652603149414	179.3906402587891	1023.160705566406	-99.06671142578128	56.00860977172852	1427.909912109375	-18.77041816711434	-16.55103302001952	1558.008911132812	-54.98662948608408	-15.90889739990236	1592.945678710938	100.388687133789	-127.8522109985352	1522.798828125	162.1250457763671	-121.3113250732422	1508.489379882812	-118.5393218994142	-120.3315124511719	1420.071899414062	16.08347702026357	292.2685241699219	1038.157836914062	-73.50914001464845	295.9732666015625	1017.6826171875	146.9109344482422	
709	5.9	40.77880096435545	1477.52001953125	131.3253173828124	-382.4944458007812	415.1752319335938	176.3106231689452	-225.3069152832031	1277.692993164062	25.10001754760732	-110.6119155883789	464.698974609375	-69.65634155273442	-72.59827423095702	890.7335205078125	-137.8326873779297	-377.593505859375	1518.905639648438	24.39209175109849	-48.61101150512698	1194.767333984375	218.2153015136718	178.5655822753906	1024.626708984375	168.2766723632812	-135.2775726318359	1579.843994140625	13.01823806762684	-402.9453735351562	1220.161743164062	-92.66019439697277	90.58172607421876	427.0474243164062	-136.7497711181641	-221.5067138671875	256.6912231445312	153.0676116943359	216.9041442871094	1048.624389648438	-158.919174194336	-594.1580200195312	1199.92626953125	-45.37670516967788	-595.7969970703125	1205.525634765625	76.51631164550767	-423.1003723144531	1229.315673828125	174.3296966552733	-24.72896575927734	867.6934814453125	-37.35191345214849	-108.4021224975586	759.6915893554688	117.335464477539	-158.8170318603516	802.0829467773438	219.5527038574218	-135.8297424316406	452.6301574707031	-159.4398040771485	-351.2603759765625	419.4490356445312	89.91056823730462	-197.8108978271484	409.5225219726562	-116.5879669189454	-456.9494934082031	421.2156066894531	119.9621658325194	-29.32431983947752	1206.605590820312	-171.1346130371095	27.21268272399905	1246.715942382812	-195.3735351562501	6.196081638336151	1243.329711914062	255.4803771972655	208.9971466064453	1057.462158203125	222.4672546386718	179.4829559326172	1023.054382324219	-99.28985595703128	55.95531845092773	1428.064819335938	-18.27581214904793	-16.86169052124023	1558.079345703125	-54.51962280273447	-15.95732975006105	1592.868286132812	100.9795455932616	-128.0523071289063	1522.615478515625	162.7508239746093	-121.132339477539	1508.683227539062	-117.8975753784181	-120.3903427124023	1420.134033203125	16.59612846374502	292.3616027832031	1038.08447265625	-73.75273895263673	296.0671997070312	1017.733093261719	146.6600036621093	
710	5.908333333333333	40.85733795166014	1477.445434570312	131.7398834228515	-382.1926574707031	428.1632385253906	176.6430358886718	-225.2951354980469	1277.728149414062	25.32690429687489	-110.313362121582	450.5804138183594	-70.07430267333989	-78.2719039916992	878.0140380859375	-138.6758575439454	-377.6834716796875	1518.949829101562	24.59480476379381	-48.61395263671878	1194.4990234375	218.3207244873046	178.6384887695312	1024.629516601562	168.0558471679687	-135.3978576660156	1579.888427734375	13.77331924438465	-402.489990234375	1219.895629882812	-93.09097290039074	91.53880310058595	414.9318542480469	-137.2433013916016	-223.5263214111328	267.4680786132812	152.9834442138671	217.044189453125	1048.614013671875	-159.1093139648438	-593.81689453125	1200.205078125	-45.8879776000978	-595.8156127929688	1205.637084960938	76.07117462158189	-423.1963806152344	1229.38525390625	173.7530517578124	-30.97995567321777	854.8179321289062	-38.32169342041021	-101.8841018676758	767.8753051757812	117.8366699218749	-152.5761108398438	810.3560180664062	220.576690673828	-134.9672698974609	438.0124816894531	-159.8520050048829	-352.9546203613281	432.3939208984375	89.76499938964837	-196.4478149414062	393.7395935058594	-116.0180816650391	-456.6534729003906	435.0461120605469	120.1248779296874	-29.01646614074705	1206.885620117188	-170.5791778564454	27.56750297546389	1247.042114257812	-194.8373565673829	6.134492397308319	1243.033935546875	255.6978912353515	209.0960693359375	1057.40234375	222.2543334960937	179.5729217529297	1022.935974121094	-99.55360412597659	55.88735961914062	1428.135375976562	-17.91449165344246	-16.96331024169921	1558.215698242188	-53.98346710205087	-15.89376354217531	1592.832641601562	101.5839691162108	-128.2190551757813	1522.403076171875	163.4945983886718	-120.9643402099609	1508.897216796875	-117.21346282959	-120.4323654174805	1420.216796875	17.18445587158193	292.396240234375	1038.0361328125	-73.99510192871095	296.1344909667969	1017.784545898438	146.3683624267578	
711	5.916666666666667	40.92044448852538	1477.331909179688	132.2322387695312	-380.9907836914062	441.1475830078125	177.0962982177734	-225.2876129150391	1277.794677734375	25.58702087402333	-109.8872833251953	437.1466979980469	-70.36513519287114	-84.46347045898436	865.1128540039062	-139.4904785156251	-377.7241516113281	1519.012084960938	24.81363296508775	-48.67612457275393	1194.259033203125	218.3607940673827	178.6731719970703	1024.615234375	167.7652587890625	-135.4561614990234	1579.945434570312	14.56636142730702	-402.003662109375	1219.580200195312	-93.56757354736339	91.62191772460939	402.4978637695312	-137.6139831542969	-224.4533233642578	278.6036071777344	152.8218536376953	217.1263885498047	1048.592651367188	-159.3307037353516	-593.5197143554688	1200.582397460938	-46.37829208374038	-595.7938232421875	1205.757080078125	75.53881072998033	-423.2467041015625	1229.4931640625	173.0478057861327	-38.18654251098632	841.942138671875	-39.58341217041021	-95.48927307128908	776.0763549804688	118.068748474121	-146.2603149414063	818.9043579101562	221.412139892578	-135.2740631103515	423.6185607910156	-160.2661895751954	-352.4033508300781	444.8126831054688	89.82041168212884	-196.7713165283203	379.3267211914062	-117.2398071289063	-455.6962890625	449.3618774414062	121.2082519531249	-28.69677543640135	1207.177490234375	-170.0365447998048	27.95981025695803	1247.431274414062	-194.3065032958985	6.037071704864471	1242.740478515625	255.876480102539	209.1390075683593	1057.357055664062	222.0203704833984	179.6743469238281	1022.821716308594	-99.88835906982425	55.89076232910156	1428.210205078125	-17.57276153564461	-16.96699523925781	1558.317993164062	-53.2379035949708	-15.9021511077881	1592.820678710938	102.2384796142577	-128.4205017089844	1522.22705078125	164.2196197509764	-120.7660827636719	1509.157348632812	-116.4861221313478	-120.4441757202148	1420.302124023438	17.8145866394042	292.4644775390625	1037.97412109375	-74.29326629638673	296.169921875	1017.87353515625	146.0765228271484	
